<svg width="56" height="56" viewBox="0 0 56 56" fill="none" xmlns="http://www.w3.org/2000/svg">
<circle cx="28" cy="28" r="28" fill="url(#paint0_linear_27046_5927)"/>
<path fill-rule="evenodd" clip-rule="evenodd" d="M27.314 32.3698V27.3434H18.0763V29.6755H24.6876V31.4868C23.5329 33.2981 21.2688 34.0227 18.4839 34.0227C13.9329 34.0227 11.148 31.9849 11.148 28C11.148 24.0151 13.8876 21.9774 18.348 21.9774C20.9971 21.9774 22.8537 22.7472 24.2574 24.3321L26.4763 22.7472C24.8914 21.0491 22.2197 19.6 18.3254 19.6C12.1216 19.6 8.38574 22.7698 8.38574 28C8.38574 33.2302 12.1216 36.4 18.3706 36.4C22.7178 36.4 25.865 34.7019 27.314 32.3698ZM47.614 32.3698V27.3434H38.3763V29.6755H44.9876V31.4868C43.8329 33.2981 41.5688 34.0227 38.7839 34.0227C34.2329 34.0227 31.448 31.9849 31.448 28C31.448 24.0151 34.1876 21.9774 38.648 21.9774C41.2971 21.9774 43.1537 22.7472 44.5574 24.3321L46.7763 22.7472C45.1914 21.0491 42.5197 19.6 38.6254 19.6C32.4216 19.6 28.6857 22.7698 28.6857 28C28.6857 33.2302 32.4216 36.4 38.6706 36.4C43.0178 36.4 46.165 34.7019 47.614 32.3698Z" fill="#0C0C0C"/>
<defs>
<linearGradient id="paint0_linear_27046_5927" x1="0" y1="0" x2="53.8089" y2="-2.03169" gradientUnits="userSpaceOnUse">
<stop stop-color="#D1E9CC"/>
<stop offset="1" stop-color="#03C5DC"/>
</linearGradient>
</defs>
</svg>
