<?xml version="1.0" standalone="no"?>
<!DOCTYPE svg PUBLIC "-//W3C//DTD SVG 20010904//EN"
 "http://www.w3.org/TR/2001/REC-SVG-20010904/DTD/svg10.dtd">
<svg version="1.0" xmlns="http://www.w3.org/2000/svg"
 width="1024.000000pt" height="1024.000000pt" viewBox="0 0 1024.000000 1024.000000"
 preserveAspectRatio="xMidYMid meet">
<metadata>
Created by potrace 1.14, written by Peter Selinger 2001-2017
</metadata>
<g transform="translate(0.000000,1024.000000) scale(0.100000,-0.100000)"
fill="#000000" stroke="none">
<path d="M0 5120 l0 -5120 5120 0 5120 0 0 5120 0 5120 -5120 0 -5120 0 0
-5120z m3167 1909 c574 -47 1047 -227 1430 -546 54 -45 115 -99 136 -121 l39
-40 -253 -180 -253 -181 -101 98 c-239 230 -531 364 -907 416 -338 46 -750 18
-1048 -72 -242 -73 -441 -185 -589 -333 -164 -164 -266 -361 -323 -623 -30
-138 -33 -492 -5 -631 97 -481 384 -798 871 -961 399 -133 988 -149 1428 -39
315 79 565 229 720 433 l48 64 0 213 0 214 -755 0 -755 0 0 265 0 265 1055 0
1055 0 0 -579 0 -579 -60 -81 c-325 -439 -859 -714 -1565 -808 -181 -23 -655
-24 -845 0 -509 64 -905 215 -1215 464 -325 261 -523 601 -606 1047 -26 139
-37 472 -20 625 82 753 520 1286 1256 1530 377 125 833 176 1262 140z m4738
-9 c338 -39 629 -122 898 -256 201 -100 367 -215 536 -371 l75 -69 -254 -182
-254 -181 -101 98 c-243 234 -511 357 -905 417 -161 25 -535 25 -715 0 -678
-93 -1085 -410 -1230 -959 -33 -124 -45 -234 -45 -400 0 -675 352 -1125 1011
-1297 211 -54 375 -73 654 -74 256 0 358 8 555 46 358 68 655 234 825 460 l45
60 0 214 0 214 -755 0 -755 0 0 265 0 265 1055 0 1055 0 0 -576 0 -576 -52
-76 c-71 -103 -271 -301 -388 -384 -197 -139 -399 -239 -646 -318 -516 -165
-1211 -183 -1769 -46 -408 101 -725 271 -975 526 -123 124 -214 253 -295 415
-135 270 -195 541 -195 883 0 339 62 627 192 886 310 618 945 970 1863 1030
99 6 474 -3 570 -14z"/>
</g>
</svg>
